<svg width="246" height="246" viewBox="0 0 246 246" fill="none" xmlns="http://www.w3.org/2000/svg">
<path d="M174.25 225.5H71.75C49.2 225.5 30.75 207.05 30.75 184.5V61.5C30.75 38.95 49.2 20.5 71.75 20.5H174.25C196.8 20.5 215.25 38.95 215.25 61.5V184.5C215.25 207.05 196.8 225.5 174.25 225.5Z" fill="#2F2F2F"/>
<path d="M166.562 112.75H79.4375C69.5975 112.75 61.5 104.653 61.5 94.8125V69.1875C61.5 59.3475 69.5975 51.25 79.4375 51.25H166.562C176.403 51.25 184.5 59.3475 184.5 69.1875V94.8125C184.5 104.653 176.403 112.75 166.562 112.75ZM111.315 175.06L104.653 168.397L111.007 162.042C113.98 159.07 113.98 154.15 111.007 151.177C109.561 149.748 107.609 148.946 105.575 148.946C103.541 148.946 101.589 149.748 100.143 151.177L93.7875 157.532L87.74 151.485C86.2933 150.055 84.3414 149.253 82.3075 149.253C80.2736 149.253 78.3217 150.055 76.875 151.485C73.9025 154.457 73.9025 159.377 76.875 162.35L82.9225 168.397L76.5675 174.752C73.595 177.725 73.595 182.645 76.5675 185.617C78.105 187.155 80.0525 187.872 82 187.872C83.9475 187.872 85.895 187.155 87.4325 185.617L93.7875 179.262L100.45 185.925C101.988 187.462 103.935 188.18 105.882 188.18C107.83 188.18 109.777 187.462 111.315 185.925C114.287 182.952 114.287 178.032 111.315 175.06ZM169.228 167.362C163.59 167.362 158.875 162.749 158.875 157.112C158.875 151.474 163.385 146.862 169.022 146.862H169.228C174.865 146.862 179.478 151.474 179.478 157.112C179.478 162.749 174.865 167.362 169.228 167.362ZM148.522 189.522C142.885 189.522 138.272 185.013 138.272 179.375V179.17C138.272 173.532 142.885 168.92 148.522 168.92C154.16 168.92 158.772 173.532 158.772 179.17C158.772 184.807 154.16 189.522 148.522 189.522Z" fill="#DD6031"/>
</svg>
