<svg width="30" height="30" viewBox="0 0 30 30" fill="none" xmlns="http://www.w3.org/2000/svg">
<path d="M14.8423 17.2783L3.06736 29.0533C2.758 29.3626 2.36203 29.5266 1.87943 29.5451C1.39528 29.5653 0.979198 29.4013 0.631171 29.0533C0.283144 28.7052 0.109131 28.2992 0.109131 27.8352C0.109131 27.3711 0.283144 26.9651 0.631171 26.6171L12.4061 14.8422L0.631171 3.06724C0.321814 2.75788 0.157855 2.36113 0.139293 1.87699C0.119185 1.39439 0.283144 0.979076 0.631171 0.631049C0.979198 0.283022 1.38523 0.109009 1.84927 0.109009C2.3133 0.109009 2.71933 0.283022 3.06736 0.631049L14.8423 12.406L26.6172 0.631049C26.9266 0.321692 27.3233 0.156959 27.8074 0.136851C28.29 0.11829 28.7054 0.283022 29.0534 0.631049C29.4014 0.979076 29.5754 1.38511 29.5754 1.84914C29.5754 2.31318 29.4014 2.71921 29.0534 3.06724L17.2785 14.8422L29.0534 26.6171C29.3627 26.9264 29.5267 27.3224 29.5453 27.805C29.5654 28.2892 29.4014 28.7052 29.0534 29.0533C28.7054 29.4013 28.2993 29.5753 27.8353 29.5753C27.3713 29.5753 26.9652 29.4013 26.6172 29.0533L14.8423 17.2783Z" fill="#1C1B1F"/>
</svg>
