<svg width="121" height="121" viewBox="0 0 121 121" fill="none" xmlns="http://www.w3.org/2000/svg">
<path d="M106.228 26.3679C98.1108 25.5613 89.9937 24.9563 81.8262 24.5025V24.4521L80.717 17.8979C79.9608 13.2596 78.8516 6.30209 67.0541 6.30209H53.845C42.0979 6.30209 40.9887 12.9571 40.182 17.8475L39.1233 24.3008C34.4345 24.6033 29.7458 24.9058 25.057 25.3596L14.772 26.3679C12.6545 26.5696 11.142 28.435 11.3437 30.5021C11.5454 32.5692 13.3604 34.0817 15.4779 33.88L25.7629 32.8717C52.1812 30.25 78.8012 31.2583 105.522 33.9304H105.925C107.841 33.9304 109.505 32.4683 109.707 30.5021C109.783 29.495 109.461 28.4982 108.811 27.7254C108.16 26.9526 107.233 26.4653 106.228 26.3679ZM96.9512 41.0392C95.7412 39.7788 94.0775 39.0729 92.3633 39.0729H28.6366C26.9225 39.0729 25.2083 39.7788 24.0487 41.0392C22.8891 42.2996 22.2337 44.0138 22.3345 45.7783L25.4604 97.5058C26.015 105.169 26.7208 114.748 44.3162 114.748H76.6837C94.2791 114.748 94.985 105.22 95.5395 97.5058L98.6654 45.8288C98.7662 44.0138 98.1108 42.2996 96.9512 41.0392ZM68.8691 89.4896H52.0804C50.0133 89.4896 48.2991 87.7754 48.2991 85.7083C48.2991 83.6413 50.0133 81.9271 52.0804 81.9271H68.8691C70.9362 81.9271 72.6504 83.6413 72.6504 85.7083C72.6504 87.7754 70.9362 89.4896 68.8691 89.4896ZM73.1041 69.3229H47.8958C45.8287 69.3229 44.1145 67.6088 44.1145 65.5417C44.1145 63.4746 45.8287 61.7604 47.8958 61.7604H73.1041C75.1712 61.7604 76.8854 63.4746 76.8854 65.5417C76.8854 67.6088 75.1712 69.3229 73.1041 69.3229Z" fill="#DD3131"/>
</svg>
