<svg width="127" height="127" viewBox="0 0 127 127" fill="none" xmlns="http://www.w3.org/2000/svg">
<path d="M85.6721 10.5833H41.328C22.0663 10.5833 10.5834 22.0663 10.5834 41.3279V85.6192C10.5834 104.934 22.0663 116.417 41.328 116.417H85.6192C104.881 116.417 116.364 104.934 116.364 85.6721V41.3279C116.417 22.0663 104.934 10.5833 85.6721 10.5833ZM57.9438 92.6571C56.4092 94.1917 53.4988 95.6733 51.3821 95.9908L38.3646 97.8429C37.8884 97.8958 37.4121 97.9488 36.9359 97.9488C34.7663 97.9488 32.7555 97.2079 31.3267 95.7792C29.5805 94.0329 28.8396 91.4929 29.263 88.6883L31.115 75.6708C31.4325 73.5013 32.8613 70.6438 34.4488 69.1092L58.0496 45.5083C58.8906 47.8787 59.9537 50.1642 61.2246 52.3346C61.7538 53.2342 62.3359 54.0808 62.8121 54.7158C63.3942 55.6154 64.0821 56.4621 64.5055 56.9383C64.77 57.3088 64.9817 57.5733 65.0875 57.6792C66.4105 59.2667 67.945 60.7483 69.268 61.8596C69.6384 62.23 69.85 62.4417 69.9559 62.4946C70.7496 63.1296 71.5434 63.7646 72.2313 64.2408C73.078 64.8758 73.9246 65.4579 74.8242 65.9342C75.8825 66.5692 77.0467 67.1513 78.2109 67.7333C79.428 68.2625 80.5392 68.7388 81.6505 69.1092L57.9438 92.6571ZM91.9163 58.6846L87.048 63.6058C86.8948 63.7579 86.7131 63.8782 86.5133 63.96C86.3136 64.0417 86.0996 64.0832 85.8838 64.0821C85.725 64.0821 85.5134 64.0821 85.4075 64.0292C80.0918 62.4882 75.2521 59.628 71.3385 55.7144C67.425 51.8009 64.5647 46.9612 63.0238 41.6454C62.865 41.0633 63.0238 40.4283 63.4471 40.0579L68.3684 35.1367C76.4117 27.0933 84.0846 27.2521 91.9692 35.1367C95.9909 39.1583 97.9488 43.0213 97.9488 47.0429C97.8959 50.8529 95.938 54.6629 91.9163 58.6846Z" fill="#DD6031"/>
</svg>
