<svg width="141" height="141" viewBox="0 0 141 141" fill="none" xmlns="http://www.w3.org/2000/svg">
<path d="M70.5 11.75C38.1287 11.75 11.75 38.1287 11.75 70.5C11.75 102.871 38.1287 129.25 70.5 129.25C102.871 129.25 129.25 102.871 129.25 70.5C129.25 38.1287 102.871 11.75 70.5 11.75ZM93.53 74.9062H46.53C44.1212 74.9062 42.1237 72.9087 42.1237 70.5C42.1237 68.0912 44.1212 66.0937 46.53 66.0937H93.53C94.6986 66.0937 95.8194 66.558 96.6457 67.3843C97.472 68.2106 97.9362 69.3314 97.9362 70.5C97.9362 71.6686 97.472 72.7893 96.6457 73.6157C95.8194 74.442 94.6986 74.9062 93.53 74.9062Z" fill="#DD3131"/>
</svg>
