<svg width="200" height="300" viewBox="0 0 200 300" fill="none" xmlns="http://www.w3.org/2000/svg">
<rect width="200" height="300" fill="#2F2F2F"/>
<path d="M90.06 192C88.66 192 87.96 191.3 87.96 189.9V177.51C87.96 171.49 89.43 166.59 92.37 162.81C95.31 159.03 99.79 154.76 105.81 150C109.87 146.78 113.09 144.05 115.47 141.81C117.85 139.43 119.81 136.63 121.35 133.41C123.03 130.19 123.87 126.41 123.87 122.07C123.87 115.07 121.63 109.47 117.15 105.27C112.67 100.93 106.72 98.76 99.3 98.76C91.74 98.76 85.65 100.93 81.03 105.27C76.55 109.61 74.31 115.28 74.31 122.28V128.79C74.31 130.19 73.61 130.89 72.21 130.89L61.5 130.26C60.1 130.26 59.4 129.56 59.4 128.16V122.28C59.4 111.22 63.11 102.26 70.53 95.4C77.95 88.54 87.68 85.11 99.72 85.11C111.48 85.11 120.93 88.47 128.07 95.19C135.21 101.91 138.78 110.87 138.78 122.07C138.78 128.23 137.73 133.55 135.63 138.03C133.67 142.51 131.29 146.15 128.49 148.95C125.69 151.75 121.98 154.97 117.36 158.61C112.6 162.25 109.03 165.47 106.65 168.27C104.27 171.07 103.08 174.43 103.08 178.35V189.9C103.08 191.3 102.38 192 100.98 192H90.06ZM95.31 233.58C91.95 233.58 89.15 232.46 86.91 230.22C84.67 227.98 83.55 225.18 83.55 221.82C83.55 218.32 84.67 215.52 86.91 213.42C89.15 211.18 91.95 210.06 95.31 210.06C98.81 210.06 101.61 211.18 103.71 213.42C105.95 215.52 107.07 218.32 107.07 221.82C107.07 225.18 105.95 227.98 103.71 230.22C101.47 232.46 98.67 233.58 95.31 233.58Z" fill="#DD6031"/>
</svg>
